<?xml version="1.0" encoding="iso-8859-1"?>
<!-- Generator: Adobe Illustrator 19.0.0, SVG Export Plug-In . SVG Version: 6.00 Build 0)  -->
<svg version="1.1" id="Layer_1" xmlns="http://www.w3.org/2000/svg" xmlns:xlink="http://www.w3.org/1999/xlink" x="0px" y="0px"
	 viewBox="0 0 513.536 513.536" style="enable-background:new 0 0 513.536 513.536;" xml:space="preserve">
<g transform="translate(1 1)">
	<g>
		<path d="M485.23,173.535c-17.92-16.213-40.107-24.747-64.853-23.04l-11.947,0.853c-47.067,2.034-90.567,16.541-127.312,40.068
			C261.183,112.572,204.959,50.164,129.39,23.349c-21.039-8.092-44.378-8.504-64.928,0.206c-2.54,0.023-4.982,1.101-6.53,3.068
			C37.387,37.071,22.348,54.339,15.043,76.255l-4.267,11.093c-40.107,125.44,25.6,267.947,145.92,316.587
			c3.171,1.586,6.67,2.842,10.293,3.773c0.771,23.698,10.893,46.393,28.107,62.787c16.213,15.36,36.693,23.893,58.88,23.893
			c0.853,0,2.56,0,3.413,0l13.653-2.56c132.267-10.24,240.64-124.587,241.493-255.147
			C512.536,212.789,502.296,189.749,485.23,173.535z M123.416,38.709c72.43,26.416,125.285,86.869,143.279,162.664
			c-49.162,36.497-84.025,90.016-95.642,150.943c-31.239-33.714-36.734-80.515-15.21-133.553
			c30.741-78.036,6.87-142.964-68.243-184.699c2.882-0.321,5.734-0.474,8.51-0.474C105.496,33.589,114.03,35.295,123.416,38.709z
			 M26.99,92.469l3.413-11.093c6.448-17.731,18.228-31.649,33.894-40.33c79.443,37.627,105.663,96.788,76.186,171.743
			c-26.659,64.982-16.698,121.821,27.463,161.008c-0.531,5.446-0.861,10.944-1.018,16.479c-0.856-0.846-2.554-0.849-3.405-1.7
			C51.736,343.349-9.704,210.229,26.99,92.469z M183.919,401.783c0.05-0.418,0.084-0.839,0.084-1.261
			c-0.639-27.793,4.106-55.106,13.514-80.689c0.072-0.194,0.146-0.386,0.219-0.579c0.529-1.427,1.086-2.844,1.644-4.26
			c32.702-81.966,113.5-141.904,209.05-145.726l11.947-0.853c1.707,0,2.56,0,4.267,0c17.076,0,33.368,6.21,45.941,17.131
			c-3.24,78.313-49.15,121.109-131.274,121.109c-0.853,0-0.853,0-0.853,0c-83.479,0-134.977,46.519-146.446,131.503
			c-5.166-10.084-8.007-21.581-8.007-33.369C183.962,403.784,183.947,402.785,183.919,401.783z M269.336,475.615l-11.947,0.853
			c-18.672,0.849-36.496-5.906-50.122-18.573c5.455-86.979,51.357-133.321,131.188-133.321h0.853
			c84.332,0,136.395-42.791,146.651-118.83c5.069,9.923,7.802,20.977,7.802,32.644C492.91,360.415,391.363,467.082,269.336,475.615z
			"/>
	</g>
</g>
<g>
</g>
<g>
</g>
<g>
</g>
<g>
</g>
<g>
</g>
<g>
</g>
<g>
</g>
<g>
</g>
<g>
</g>
<g>
</g>
<g>
</g>
<g>
</g>
<g>
</g>
<g>
</g>
<g>
</g>
</svg>
