<?xml version="1.0" encoding="iso-8859-1"?>
<!-- Generator: Adobe Illustrator 19.0.0, SVG Export Plug-In . SVG Version: 6.00 Build 0)  -->
<svg version="1.1" id="Layer_1" xmlns="http://www.w3.org/2000/svg" xmlns:xlink="http://www.w3.org/1999/xlink" x="0px" y="0px"
	 viewBox="0 0 513.536 513.536" style="enable-background:new 0 0 513.536 513.536;" xml:space="preserve">
<g transform="translate(1 1)">
	<path style="fill:#FFDD09;" d="M276.163,205.109c-17.067-78.507-70.827-145.92-150.187-174.08l0,0
		C83.31,13.962,37.23,35.295,22.723,78.815l-4.267,10.24c-38.4,122.027,24.747,259.413,140.8,307.2l0,0
		c5.12,1.707,10.24,3.413,15.36,4.267C173.763,321.162,213.87,248.629,276.163,205.109"/>
	<path style="fill:#FFFFFF;" d="M40.643,89.909l3.413-11.093c10.24-29.013,34.987-48.64,63.147-52.907
		c-36.693-5.12-72.533,16.213-84.48,52.907l-4.267,11.093c-38.4,122.027,24.747,259.413,140.8,307.2l0,0
		c5.12,1.707,10.24,3.413,15.36,4.267c0-2.56,0-5.12,0-6.827C62.83,344.202,3.096,209.375,40.643,89.909"/>
	<path style="fill:#FD9808;" d="M269.336,485.002l-11.947,0.853c-45.227,1.707-81.92-34.987-81.92-80.213l0,0
		c-4.267-129.707,98.987-238.933,232.96-244.053l11.947-0.853c45.227-2.56,82.773,32.427,82.773,78.507l0,0
		C501.443,363.829,396.483,475.615,269.336,485.002"/>
	<path style="fill:#FFDD09;" d="M265.07,485.002l-11.093,0.853c-41.813,1.707-75.947-34.987-75.947-81.067l0,0
		c-4.267-129.707,91.307-238.933,214.187-244.053l11.093-0.853c41.813-2.56,75.947,32.427,75.947,78.507l0,0
		C479.256,363.829,382.83,474.762,265.07,485.002"/>
	<path d="M253.976,494.389c-22.187,0-42.667-8.533-58.88-23.893c-17.92-17.067-28.16-40.96-28.16-65.707
		C162.67,270.815,270.19,157.322,408.43,151.349l11.947-0.853c24.747-1.707,46.933,6.827,64.853,23.04
		c17.067,16.213,27.307,39.253,27.307,63.147c-0.853,130.56-109.227,244.907-241.493,255.147l0,0l-13.653,2.56
		C256.536,494.389,254.83,494.389,253.976,494.389z M269.336,485.002L269.336,485.002L269.336,485.002z M424.643,168.415
		c-1.707,0-2.56,0-4.267,0l-11.947,0.853c-128,5.12-229.547,110.933-224.427,235.52c0,20.48,8.533,40.107,23.04,52.907
		c13.653,12.8,31.573,19.627,50.347,18.773l11.947-0.853c122.027-8.533,223.573-115.2,224.427-237.227
		c0-19.627-7.68-37.547-21.333-51.2C459.63,175.242,442.563,168.415,424.643,168.415z"/>
	<path d="M198.51,469.642L198.51,469.642c-5.12,0-8.533-4.267-8.533-9.387c5.12-98.987,58.027-153.6,148.48-153.6c0,0,0,0,0.853,0
		c83.627,0,129.707-44.373,131.413-125.44c0-5.12,4.267-8.533,8.533-8.533c5.12,0,8.533,4.267,8.533,8.533
		c-1.707,91.307-55.467,143.36-148.48,143.36h-0.853c-81.067,0-127.147,47.787-131.413,137.387
		C207.043,466.229,203.63,469.642,198.51,469.642z"/>
	<path d="M176.323,378.335c-1.707,0-4.267-0.853-5.12-1.707c-46.08-39.253-57.173-96.427-30.72-162.987
		c29.867-75.947,2.56-134.827-78.507-172.373c-3.413-1.707-5.12-6.827-3.413-11.093s6.827-5.973,11.093-4.267
		c89.6,40.96,120.32,109.227,87.04,193.707c-23.893,58.88-14.507,109.227,26.453,143.36c3.413,3.413,4.267,8.533,0.853,11.947
		C181.443,377.482,178.883,378.335,176.323,378.335z"/>
	<path d="M175.47,409.055c-0.853,0-0.853,0-1.707,0c-5.973-0.853-11.947-2.56-17.067-5.12
		C36.376,355.295-29.33,212.789,10.776,87.349l4.267-11.093c7.68-23.04,23.893-40.96,46.08-51.2
		c21.333-10.24,46.08-10.24,68.267-1.707c79.36,28.16,137.387,95.573,154.453,180.053c0.853,3.413-0.853,6.827-3.413,8.533
		c-61.44,43.52-98.133,114.347-96.427,188.587c0,2.56-0.853,5.12-3.413,6.827C178.883,408.202,177.176,409.055,175.47,409.055z
		 M96.11,33.589c-9.387,0-19.627,1.707-29.013,5.973C50.03,48.095,37.23,62.602,30.403,81.375L26.99,92.469
		c-36.693,117.76,24.747,250.88,136.533,296.107c0.853,0.853,2.56,0.853,3.413,1.707c2.56-74.24,39.253-143.36,99.84-188.587
		c-17.92-75.947-70.827-136.533-143.36-162.987C114.03,35.295,105.496,33.589,96.11,33.589z"/>
</g>
<g>
</g>
<g>
</g>
<g>
</g>
<g>
</g>
<g>
</g>
<g>
</g>
<g>
</g>
<g>
</g>
<g>
</g>
<g>
</g>
<g>
</g>
<g>
</g>
<g>
</g>
<g>
</g>
<g>
</g>
</svg>
