<svg height="512pt" viewBox="-9 0 512 512" width="512pt" xmlns="http://www.w3.org/2000/svg"><path d="m418.132812 179.199219h-59.734374v-59.734375c-.007813-9.417969-7.644532-17.054688-17.066407-17.066406h-324.265625c-9.421875.011718-17.0546872 7.648437-17.066406 17.066406v307.203125c.0390625 26.535156 20.328125 48.652343 46.761719 50.972656l18.089843 24.121094c4.847657 6.429687 12.429688 10.21875 20.480469 10.238281h187.734375c8.054688-.015625 15.632813-3.808594 20.476563-10.238281l18.089843-24.121094c26.433594-2.320313 46.726563-24.4375 46.765626-50.972656v-25.601563h59.734374c42.398438-.046875 76.753907-34.402344 76.800782-76.800781v-68.265625c-.046875-42.394531-34.402344-76.753906-76.800782-76.800781zm-59.734374 51.199219h59.734374c14.132813.015624 25.585938 11.46875 25.601563 25.601562v68.265625c-.015625 14.132813-11.46875 25.585937-25.601563 25.601563h-59.734374zm-78.515626 261.125c-1.609374 2.144531-4.136718 3.40625-6.816406 3.410156h-187.734375c-2.683593-.003906-5.210937-1.269532-6.824219-3.414063l-10.242187-13.652343h221.867187zm61.449219-64.855469c-.019531 18.84375-15.289062 34.113281-34.132812 34.132812h-256c-18.84375-.019531-34.113281-15.289062-34.132813-34.132812v-307.203125h324.265625zm136.535157-102.402344c-.039063 32.976563-26.761719 59.695313-59.734376 59.734375h-59.734374v-17.066406h59.734374c23.554688-.027344 42.640626-19.113282 42.667969-42.667969v-68.265625c-.027343-23.550781-19.113281-42.640625-42.667969-42.667969h-59.734374v-17.066406h59.734374c32.972657.039063 59.695313 26.761719 59.734376 59.734375zm0 0"/><path d="m72.941406 69.191406c-4.132812 2.160156-5.765625 7.238282-3.667968 11.402344 2.097656 4.164062 7.148437 5.871094 11.34375 3.839844 12.632812-6.4375 20.917968-19.082032 21.78125-33.234375-.152344-8.210938-3.429688-16.058594-9.164063-21.941407-5.394531-5.511718-8.257813-13.019531-7.902344-20.722656 0-4.714844-3.820312-8.535156-8.53125-8.535156-4.714843 0-8.535156 3.820312-8.535156 8.535156-.367187 11.636719 3.847656 22.957032 11.742187 31.519532 3.691407 4.515624 5.324219 6.707031 5.324219 11.144531-.878906 7.6875-5.523437 14.429687-12.390625 17.992187zm0 0"/><path d="m166.808594 69.191406c-4.132813 2.160156-5.765625 7.238282-3.667969 11.402344s7.148437 5.871094 11.34375 3.839844c12.632813-6.4375 20.917969-19.082032 21.78125-33.234375-.152344-8.210938-3.429687-16.058594-9.164063-21.941407-5.398437-5.511718-8.257812-13.019531-7.902343-20.722656 0-4.714844-3.820313-8.535156-8.53125-8.535156-4.714844 0-8.535157 3.820312-8.535157 8.535156-.367187 11.636719 3.847657 22.957032 11.742188 31.519532 3.691406 4.515624 5.324219 6.707031 5.324219 11.144531-.878907 7.6875-5.523438 14.429687-12.390625 17.992187zm0 0"/><path d="m260.675781 69.191406c-4.132812 2.160156-5.765625 7.238282-3.667969 11.402344 2.097657 4.164062 7.148438 5.871094 11.34375 3.839844 12.632813-6.4375 20.917969-19.082032 21.78125-33.234375-.152343-8.210938-3.429687-16.058594-9.164062-21.941407-5.398438-5.511718-8.257812-13.019531-7.902344-20.722656 0-4.714844-3.820312-8.535156-8.53125-8.535156-4.714844 0-8.535156 3.820312-8.535156 8.535156-.367188 11.636719 3.847656 22.957032 11.742188 31.519532 3.691406 4.515624 5.324218 6.707031 5.324218 11.144531-.878906 7.6875-5.523437 14.429687-12.390625 17.992187zm0 0"/><path d="m42.667969 136.535156c-4.714844 0-8.535157 3.820313-8.535157 8.53125v17.066406c0 4.714844 3.820313 8.535157 8.535157 8.535157 4.710937 0 8.53125-3.820313 8.53125-8.535157v-17.066406c0-4.710937-3.820313-8.53125-8.53125-8.53125zm0 0"/><path d="m42.667969 187.734375c-4.714844 0-8.535157 3.820313-8.535157 8.53125v213.335937c0 4.710938 3.820313 8.53125 8.535157 8.53125 4.710937 0 8.53125-3.820312 8.53125-8.53125v-213.335937c0-4.710937-3.820313-8.53125-8.53125-8.53125zm0 0"/></svg>