<svg height="512pt" viewBox="-37 0 512 512.00216" width="512pt" xmlns="http://www.w3.org/2000/svg"><path d="m438.605469 40.167969c.046875-.292969.035156-.609375.058593-.914063.121094-.878906.195313-1.769531.195313-2.683594 0-13.261718-11.691406-22.308593-71.460937-29.34375-39.605469-4.652343-92.144532-7.226562-147.964844-7.226562-55.820313 0-108.363282 2.574219-147.972656 7.230469-59.765626 7.03125-71.460938 16.078125-71.460938 29.34375 0 .898437.0742188 1.777343.183594 2.644531.039062.316406.023437.644531.074218.953125l15.371094 184.269531c0 .050782-.011718.097656 0 .148438l16.3125 195.691406c.011719.085938.046875.160156.058594.234375l4.570312 54.917969c0 12.871094 11.15625 21.792968 68.160157 29.316406 34.351562 4.53125 77.238281 7.253906 114.699219 7.253906 37.460937 0 80.347656-2.722656 114.699218-7.253906 57.003906-7.523438 68.160156-16.457031 68.109375-28.308594l21.054688-252.609375c.074219-.609375.132812-1.21875.15625-1.828125zm-393.558594 243.820312-3.5-41.921875c5.671875 1.523438 12.53125 2.949219 20.75 4.289063.5.085937 1.011719.171875 1.523437.257812 1.09375.171875 2.15625.355469 3.289063.523438-3.546875 12.023437-.960937 25.527343 8.191406 35.328125l39.074219 41.816406c6.644531 7.117188 15.699219 11.226562 25.476562 11.554688.425782.011718.851563.023437 1.28125.023437.109376 0 .207032-.023437.316407-.023437.585937 8.339843 3.789062 16.175781 9.558593 22.34375l39.070313 41.816406c7.191406 7.703125 16.957031 11.59375 26.734375 11.59375 8.945312 0 17.90625-3.269532 24.941406-9.839844l41.816406-39.070312c7.117188-6.644532 11.214844-15.703126 11.554688-25.492188.332031-9.777344-3.144531-19.078125-9.800781-26.195312l-5.851563-6.269532c6.4375-1.351562 12.398438-4.375 17.308594-8.960937l41.816406-39.070313c1.972656-1.839844 3.644532-3.863281 5.121094-5.996094 24.636719-2.441406 41.777344-5.292968 53.578125-8.449218l-13.984375 167.777344c-32.144531 8.59375-102.191406 15.261718-163.875 15.261718s-131.730469-6.667968-163.875-15.261718zm367.359375-222.9375-11.617188 139.542969c-14.25-4.265625-37.4375-7.984375-74.714843-10.875l-24.78125-26.527344c-13.777344-14.726562-36.960938-15.53125-51.6875-1.753906l-26.261719 24.527344-2.925781-.015625c-19.761719 0-39.277344.390625-58.171875 1.097656-12.386719-7.253906-28.101563-6.65625-39.949219 2.0625-43.226563 2.984375-68.9375 7.179687-84.199219 11.761719l-11.628906-139.820313c28.402344 8.140625 84.90625 12.09375 192.964844 12.09375 108.066406 0 164.554687-3.949219 192.972656-12.09375zm-335.679688 162.816407c-.277343-.039063-.570312-.074219-.851562-.113282-6.925781-.949218-12.652344-1.898437-17.359375-2.816406 8.449219-1.617188 19.6875-3.300781 34.269531-4.847656l-6.085937 5.691406-3.191407 2.960938c-.039062 0-.074218-.011719-.097656-.011719-2.351562-.277344-4.558594-.570313-6.683594-.863281zm58.796876-14.335938c2.351562-2.195312 5.339843-3.28125 8.328124-3.28125 3.265626 0 6.507813 1.292969 8.910157 3.851562l19.394531 20.761719c-20.894531-.648437-39.753906-1.683593-56.296875-2.976562l6.683594-6.238281zm100.925781-2.449219 29.792969-27.84375c2.351562-2.195312 5.339843-3.28125 8.324218-3.28125 3.269532 0 6.511719 1.292969 8.902344 3.851563l39.070312 41.824218c1 1.0625 1.65625 2.304688 2.195313 3.574219.195313.488281.351563.988281.488281 1.484375.109375.390625.121094.792969.191406 1.195313-27.71875 2.195312-62.523437 3.695312-103.957031 3.71875-.039062-.085938-.109375-.144531-.148437-.230469-.035156-.097656-.011719-.207031-.050782-.304688-1.460937-4.386718-.414062-9.410156 3.171876-12.761718zm110.992187 9.042969c14.3125 1.546875 25.332032 3.242188 33.597656 4.839844-7.484374 1.464844-17.601562 3.046875-31.183593 4.558594-.011719-.070313-.050781-.132813-.050781-.207032-.375-3.023437-1.132813-5.984375-2.265626-8.863281-.046874-.09375-.046874-.21875-.097656-.328125zm-147.625-4.609375c-.351562.746094-.632812 1.5-.9375 2.257813-.5 1.265624-.9375 2.558593-1.292968 3.863281-.230469.84375-.4375 1.683593-.609376 2.535156-.085937.414063-.230468.816406-.292968 1.246094l-10.03125-10.742188c4.507812-.097656 9.054687-.183593 13.601562-.230469-.167968.351563-.265625.71875-.4375 1.070313zm-107.335937 38.78125c35.414062 3.621094 75.558593 4.960937 101.679687 5.433594 1.804688 4.535156.84375 9.886719-2.925781 13.421875l-41.824219 39.0625c-2.351562 2.203125-5.4375 3.3125-8.730468 3.253906-3.28125-.113281-6.289063-1.476562-8.496094-3.828125l-39.070313-41.816406c-4.082031-4.386719-4.109375-10.886719-.632812-15.527344zm76.921875 74.007813 41.8125-39.074219c2.257812-2.105469 5.195312-3.253907 8.304687-3.253907h.4375c3.28125.121094 6.289063 1.476563 8.496094 3.828126l39.070313 41.816406c4.585937 4.910156 4.328124 12.640625-.585938 17.234375l-41.8125 39.074219c-2.367188 2.203124-5.507812 3.375-8.730469 3.242187-3.28125-.109375-6.289062-1.476563-8.496093-3.828125l-39.070313-41.816406c-4.585937-4.921875-4.328125-12.640625.574219-17.222656zm93.511718-46.949219-20.152343-21.5625c16.398437-.269531 39.351562-.878907 63.523437-2.28125l-26.148437 24.429687c-4.910157 4.585938-12.652344 4.316406-17.222657-.585937zm-43.480468-252.972657c85.515625 0 148.671875 5.984376 178.808594 12.191407-30.136719 6.203125-93.296876 12.1875-178.808594 12.1875-85.515625 0-148.675782-5.984375-178.8125-12.1875 30.132812-6.207031 93.292968-12.191407 178.8125-12.191407zm0 463.238282c-69.0625 0-142.789063-9.191406-158.832032-17.007813l-2.925781-35.046875c39.921875 8.902344 108.921875 14.082032 161.753907 14.082032 52.847656 0 121.867187-5.191407 161.792968-14.09375l-2.914062 35.046874c-15.957032 7.800782-89.757813 17.019532-158.875 17.019532zm0 0"/></svg>