<?xml version="1.0" encoding="iso-8859-1"?>
<!-- Generator: Adobe Illustrator 19.0.0, SVG Export Plug-In . SVG Version: 6.00 Build 0)  -->
<svg version="1.1" id="Layer_1" xmlns="http://www.w3.org/2000/svg" xmlns:xlink="http://www.w3.org/1999/xlink" x="0px" y="0px"
	 viewBox="0 0 511.999 511.999" style="enable-background:new 0 0 511.999 511.999;" xml:space="preserve">
<g>
	<path style="fill:#D2D5D7;" d="M317.793,105.931c-4.873,0-8.828-3.946-8.828-8.828V44.138c0-4.882,3.955-8.828,8.828-8.828
		s8.828,3.946,8.828,8.828v52.966C326.621,101.985,322.666,105.931,317.793,105.931"/>
	<polygon style="fill:#AF765D;" points="335.448,44.138 300.138,44.138 282.483,0 353.103,0 	"/>
	<path style="fill:#D2D5D7;" d="M317.793,79.448H220.69c-1.739,0-3.452-0.521-4.899-1.483l-24.258-16.172h-85.601
		c-4.873,0-8.828-3.946-8.828-8.828s3.955-8.828,8.828-8.828h88.276c1.739,0,3.452,0.521,4.899,1.483l24.258,16.172h94.429
		c4.873,0,8.828,3.946,8.828,8.828S322.666,79.448,317.793,79.448"/>
	<g>
		<polygon style="fill:#AF765D;" points="123.586,61.793 88.276,61.793 70.621,26.483 141.241,26.483 		"/>
		<path style="fill:#AF765D;" d="M353.606,511.152l-9.331,0.847h-52.966l-9.331-0.847c-49.708-4.52-87.773-46.195-87.773-96.115l0,0
			c0-5.967,0.556-11.917,1.651-17.788l24.832-114.767h194.207l24.832,114.767c1.095,5.87,1.651,11.82,1.651,17.788l0,0
			C441.378,464.957,403.314,506.632,353.606,511.152"/>
	</g>
	<g>
		<path style="fill:#874F31;" d="M292.913,485.517c-0.265,0-0.53-0.009-0.803-0.035l-7.742-0.697
			c-36.308-3.31-63.682-33.289-63.682-69.747c0-4.317,0.406-8.66,1.201-12.906c0.892-4.785,5.464-7.892,10.302-7.062
			c4.793,0.892,7.945,5.508,7.053,10.302c-0.591,3.187-0.9,6.435-0.9,9.666c0,27.26,20.471,49.691,47.625,52.162l7.733,0.697
			c4.855,0.441,8.43,4.732,7.998,9.587C301.282,482.066,297.433,485.517,292.913,485.517"/>
		<polygon style="fill:#874F31;" points="414.897,282.483 220.69,282.483 203.034,247.172 432.552,247.172 		"/>
	</g>
	<polygon style="fill:#AF765D;" points="370.759,247.172 264.828,247.172 264.828,211.862 370.759,211.862 370.759,211.862 	"/>
	<path style="fill:#874F31;" d="M370.759,211.862L370.759,211.862H264.828l0,0c-33.095-22.06-52.966-59.198-52.966-98.966V97.103
		h211.862v15.793C423.724,152.664,403.844,189.802,370.759,211.862"/>
</g>
<g>
</g>
<g>
</g>
<g>
</g>
<g>
</g>
<g>
</g>
<g>
</g>
<g>
</g>
<g>
</g>
<g>
</g>
<g>
</g>
<g>
</g>
<g>
</g>
<g>
</g>
<g>
</g>
<g>
</g>
</svg>
