<?xml version="1.0" encoding="iso-8859-1"?>
<!-- Generator: Adobe Illustrator 19.0.0, SVG Export Plug-In . SVG Version: 6.00 Build 0)  -->
<svg version="1.1" id="Layer_1" xmlns="http://www.w3.org/2000/svg" xmlns:xlink="http://www.w3.org/1999/xlink" x="0px" y="0px"
	 viewBox="0 0 512 512" style="enable-background:new 0 0 512 512;" xml:space="preserve">
<g transform="translate(1 1)">
	<g>
		<g>
			<path d="M441.093,389.827l-23.531-108.244l15.851-31.703c1.707-2.56,1.707-5.973,0-8.533s-5.12-4.267-7.68-4.267h-51.2v-20.23
				c32.079-22.482,51.2-59.691,51.2-100.09V101.4c0-5.12-3.413-8.533-8.533-8.533h-93.867V58.733h8.533
				c3.413,0,6.827-1.707,7.68-5.973l17.067-42.667c0.853-2.56,0.853-5.12-0.853-7.68C354.053,0.707,351.493-1,348.933-1h-68.267
				c-2.56,0-5.12,1.707-6.827,4.267c-1.707,1.707-1.707,5.12-0.853,7.68l17.067,42.667c0.853,3.413,4.267,5.12,7.68,5.12h8.533
				v8.533h-82.773l-23.04-15.36c-1.707-0.853-3.413-1.707-5.12-1.707h-54.187l10.667-21.333c1.707-2.56,1.707-5.973,0-8.533
				s-5.12-4.267-7.68-4.267H75.866c-2.56,0-5.973,1.707-7.68,3.413c-0.853,2.56-1.707,5.973,0,8.533l17.067,34.133
				c1.707,3.413,4.267,5.12,7.68,5.12h17.067h17.067h65.707l23.04,15.36c1.707,0.853,3.413,1.707,5.12,1.707h85.333v8.533h-93.867
				c-5.12,0-8.533,3.413-8.533,8.533v15.36c0,39.575,19.121,76.756,51.2,100.007v20.313h-51.2c-3.413,0-5.973,1.707-7.68,4.267
				c-0.853,2.56-1.707,5.973,0,8.533l15.851,31.703l-23.531,108.244c-0.853,5.973-1.707,12.8-1.707,18.773
				c0,52.907,40.107,96.427,93.013,101.547l9.387,0.853h52.053l8.533-0.853c52.907-5.12,93.013-48.64,93.013-101.547
				C442.799,402.627,441.946,396.653,441.093,389.827z M293.466,16.067h42.667l-10.24,25.6h-22.187L293.466,16.067z M109.999,50.2
				H98.053l-8.533-17.067h40.96L121.946,50.2H109.999z M220.933,116.76v-6.827h187.733v6.827c0,34.987-17.067,67.413-45.227,87.04
				h-97.28C237.999,184.173,220.933,151.747,220.933,116.76z M272.133,220.867h85.333v16.213h-85.333V220.867z M263.599,255h102.4
				h46.08l-8.533,17.067H226.053L217.519,255H263.599z M348.933,493.08l-8.533,0.853h-50.347l-9.387-0.853
				c-43.52-4.267-76.8-40.107-76.8-84.48c0-5.12,0.853-10.24,1.707-15.36l22.187-104.107h174.08l22.187,104.107
				c0.853,5.12,1.707,10.24,1.707,15.36C425.733,452.973,392.453,488.813,348.933,493.08z"/>
			<path d="M291.759,459.8l-7.68-0.853c-26.453-2.56-46.08-23.893-46.08-50.347c0-2.56,0-5.973,0.853-9.387
				c0.853-5.12-2.56-9.387-6.827-10.24c-5.12-0.853-9.387,2.56-10.24,6.827c-0.853,4.267-0.853,8.533-0.853,12.8
				c0,34.987,26.453,64,61.44,67.413l8.533,0.853c4.267,0,7.68-3.413,8.533-7.68C300.293,464.067,296.026,459.8,291.759,459.8z"/>
		</g>
	</g>
</g>
<g>
</g>
<g>
</g>
<g>
</g>
<g>
</g>
<g>
</g>
<g>
</g>
<g>
</g>
<g>
</g>
<g>
</g>
<g>
</g>
<g>
</g>
<g>
</g>
<g>
</g>
<g>
</g>
<g>
</g>
</svg>
