<?xml version="1.0" encoding="iso-8859-1"?>
<!-- Generator: Adobe Illustrator 19.0.0, SVG Export Plug-In . SVG Version: 6.00 Build 0)  -->
<svg version="1.1" id="Layer_1" xmlns="http://www.w3.org/2000/svg" xmlns:xlink="http://www.w3.org/1999/xlink" x="0px" y="0px"
	 viewBox="0 0 512 512" style="enable-background:new 0 0 512 512;" xml:space="preserve">
<g transform="translate(1 1)">
	<g>
		<path style="fill:#FFE100;" d="M306.266,75.8h-93.867c-1.707,0-3.413-0.853-5.12-1.707l-25.6-17.067
			c-4.267-2.56-5.12-7.68-2.56-11.947c2.56-4.267,7.68-5.12,11.947-2.56l23.893,16.213h91.307c5.12,0,8.533,3.413,8.533,8.533
			S311.386,75.8,306.266,75.8z"/>
		<path style="fill:#FFE100;" d="M135.599,58.733h-34.133c-5.12,0-8.533-3.413-8.533-8.533s3.413-8.533,8.533-8.533h34.133
			c5.12,0,8.533,3.413,8.533,8.533S140.719,58.733,135.599,58.733z"/>
		<path style="fill:#FFE100;" d="M169.733,50.2c0-5.12-3.413-8.533-8.533-8.533c-5.12,0-8.533,3.413-8.533,8.533
			s3.413,8.533,8.533,8.533C166.319,58.733,169.733,55.32,169.733,50.2L169.733,50.2z"/>
		<path style="fill:#FFE100;" d="M449.626,391.533L425.733,280.6h-18.773l18.773,110.933c0.853,5.973,0.853,11.093,0.853,17.067
			c0,48.64-29.013,88.747-67.413,93.013l-6.827,0.853h5.12l9.387-0.853c47.787-4.267,84.48-44.373,84.48-93.013
			C451.333,402.627,450.479,397.507,449.626,391.533"/>
		<path style="fill:#FFE100;" d="M417.199,246.467l-12.8,34.133h21.333l11.947-24.747c2.56-4.267-0.853-9.387-5.973-9.387H417.199z"
			/>
		<polygon style="fill:#FFE100;" points="365.999,212.333 365.999,212.333 365.999,246.467 383.066,246.467 383.066,212.333 
			383.066,212.333 		"/>
	</g>
	<path style="fill:#63D3FD;" d="M408.666,101.4v15.36c0,38.4-14.507,74.24-38.4,95.573h12.8c31.573-21.333,51.2-57.173,51.2-95.573
		v-6.827c0-5.12-4.267-8.533-8.533-8.533H408.666z"/>
	<path style="fill:#FFE100;" d="M333.573,501.613l-6.827,0.853h-40.96l-6.827-0.853c-38.4-4.267-67.413-44.373-67.413-93.013l0,0
		c0-5.973,0-11.947,0.853-17.067L231.173,280.6h150.187l18.773,110.933c0.853,5.973,0.853,11.093,0.853,17.067l0,0
		C401.839,457.24,371.973,497.347,333.573,501.613"/>
	<path style="fill:#FFFFFF;" d="M210.693,408.6c0-5.973,0-11.093,0.853-17.067L230.319,280.6h-17.92l-23.893,110.933
		c-0.853,5.973-1.707,11.093-1.707,17.067c0,48.64,36.693,88.747,84.48,93.013l9.387,0.853h5.12l-6.827-0.853
		C240.559,497.347,210.693,457.24,210.693,408.6"/>
	<path style="fill:#FFA800;" d="M424.026,391.533L400.133,280.6h-18.773l18.773,110.933c0.853,5.973,0.853,11.093,0.853,17.067
		c0,48.64-29.013,88.747-67.413,93.013l-6.827,0.853h5.12l9.387-0.853c47.787-4.267,84.48-44.373,84.48-93.013
		C425.733,402.627,424.879,397.507,424.026,391.533"/>
	<polygon style="fill:#FFE100;" points="378.799,280.6 233.733,280.6 220.933,246.467 391.599,246.467 	"/>
	<polygon style="fill:#FFFFFF;" points="195.333,246.467 212.399,280.6 233.733,280.6 220.933,246.467 	"/>
	<polygon style="fill:#FFA800;" points="391.599,246.467 378.799,280.6 400.133,280.6 417.199,246.467 	"/>
	<polygon style="fill:#FFE100;" points="340.399,246.467 272.133,246.467 272.133,212.333 340.399,212.333 340.399,212.333 	"/>
	<polygon style="fill:#FFFFFF;" points="255.066,246.467 272.133,246.467 272.133,212.333 255.066,212.333 	"/>
	<polygon style="fill:#FFA800;" points="340.399,212.333 340.399,212.333 340.399,246.467 357.466,246.467 357.466,212.333 
		357.466,212.333 	"/>
	<path style="fill:#63D3FD;" d="M344.666,212.333L344.666,212.333h-76.8l0,0c-23.893-21.333-38.4-57.173-38.4-95.573V101.4h153.6
		v15.36C383.066,155.16,368.559,191,344.666,212.333"/>
	<path style="fill:#FFFFFF;" d="M229.466,101.4h-25.6v15.36c0,38.4,19.627,74.24,51.2,95.573h12.8
		c-23.893-21.333-38.4-57.173-38.4-95.573V101.4z"/>
	<path style="fill:#3DB9F9;" d="M383.066,101.4v15.36c0,38.4-14.507,74.24-38.4,95.573h12.8c31.573-21.333,51.2-57.173,51.2-95.573
		V101.4H383.066z"/>
	<g>
		<path style="fill:#FFE100;" d="M314.799,109.933c-5.12,0-8.533-3.413-8.533-8.533V50.2c0-5.12,3.413-8.533,8.533-8.533
			c5.12,0,8.533,3.413,8.533,8.533v51.2C323.333,106.52,319.919,109.933,314.799,109.933z"/>
		<polygon style="fill:#FFE100;" points="323.333,50.2 289.199,50.2 272.133,7.533 340.399,7.533 		"/>
		<polygon style="fill:#FFE100;" points="118.533,58.733 84.399,58.733 67.333,24.6 135.599,24.6 		"/>
	</g>
	<path d="M280.666,511l-9.387-0.853c-52.907-5.12-93.013-48.64-93.013-101.547c0-5.973,0.853-12.8,1.707-18.773l25.6-117.76h201.387
		l25.6,117.76c0.853,6.827,1.707,12.8,1.707,18.773c0,52.907-40.107,96.427-93.013,101.547l0,0L332.719,511H280.666z
		 M219.226,289.133L197.039,393.24c-0.853,5.12-1.707,10.24-1.707,15.36c0,44.373,33.28,80.213,76.8,84.48l9.387,0.853h50.347
		l8.533-0.853c43.52-4.267,76.8-40.107,76.8-84.48c0-5.12-0.853-10.24-1.707-15.36l-22.187-104.107H219.226z"/>
	<path d="M282.373,476.867C282.373,476.867,281.519,476.867,282.373,476.867l-8.533-0.853c-34.987-3.413-61.44-32.427-61.44-67.413
		c0-4.267,0-8.533,0.853-12.8s5.12-7.68,10.24-6.827c4.267,0.853,7.68,5.12,6.827,10.24c-0.853,3.413-0.853,6.827-0.853,9.387
		c0,26.453,19.627,47.787,46.08,50.347l7.68,0.853c4.267,0,8.533,4.267,7.68,9.387C290.053,473.453,286.639,476.867,282.373,476.867
		z"/>
	<path d="M400.133,289.133H212.399c-3.413,0-5.973-1.707-7.68-5.12l-17.067-34.133c-1.707-2.56-0.853-5.973,0-8.533
		c1.707-2.56,4.267-4.267,7.68-4.267h221.867c2.56,0,5.973,1.707,7.68,4.267c1.707,2.56,1.707,5.973,0,8.533l-17.067,34.133
		C406.106,287.427,403.546,289.133,400.133,289.133z M217.519,272.067h177.493L403.546,255h-194.56L217.519,272.067z"/>
	<path d="M357.466,255h-102.4c-5.12,0-8.533-3.413-8.533-8.533v-34.133c0-5.12,3.413-8.533,8.533-8.533h102.4
		c5.12,0,8.533,3.413,8.533,8.533v34.133C365.999,251.587,362.586,255,357.466,255z M263.599,237.933h85.333v-17.067h-85.333
		V237.933z"/>
	<path d="M357.466,220.867h-102.4c-1.707,0-3.413-0.853-5.12-1.707c-34.133-23.04-54.613-61.44-54.613-102.4V101.4
		c0-5.12,3.413-8.533,8.533-8.533h204.8c5.12,0,8.533,3.413,8.533,8.533v15.36c0,41.813-20.48,80.213-54.613,102.4
		C360.879,220.013,359.173,220.867,357.466,220.867z M257.626,203.8h97.28c28.16-19.627,45.227-52.053,45.227-87.04v-6.827H212.399
		v6.827C212.399,151.747,229.466,184.173,257.626,203.8z"/>
	<path d="M306.266,109.933c-5.12,0-8.533-3.413-8.533-8.533V50.2c0-5.12,3.413-8.533,8.533-8.533s8.533,3.413,8.533,8.533v51.2
		C314.799,106.52,311.386,109.933,306.266,109.933z"/>
	<path d="M323.333,58.733h-34.133c-3.413,0-6.827-1.707-7.68-5.12l-17.067-42.667c-0.853-2.56-0.853-5.973,0.853-7.68
		C267.013,0.707,269.573-1,272.133-1h68.267c2.56,0,5.12,1.707,6.827,3.413c1.707,2.56,1.707,5.12,0.853,7.68L331.013,52.76
		C330.159,57.027,326.746,58.733,323.333,58.733z M295.173,41.667h22.187l10.24-25.6h-42.667L295.173,41.667z"/>
	<path d="M306.266,84.333h-93.867c-1.707,0-3.413-0.853-5.12-1.707l-25.6-17.067c-4.267-2.56-5.12-7.68-2.56-11.947
		c2.56-4.267,7.68-5.12,11.947-2.56l23.893,16.213h91.307c5.12,0,8.533,3.413,8.533,8.533
		C314.799,80.92,311.386,84.333,306.266,84.333z"/>
	<path d="M135.599,67.267h-34.133c-5.12,0-8.533-3.413-8.533-8.533s3.413-8.533,8.533-8.533h34.133c5.12,0,8.533,3.413,8.533,8.533
		S140.719,67.267,135.599,67.267z"/>
	<path d="M169.733,58.733c0-5.12-3.413-8.533-8.533-8.533c-5.12,0-8.533,3.413-8.533,8.533s3.413,8.533,8.533,8.533
		C166.319,67.267,169.733,63.853,169.733,58.733"/>
	<path d="M118.533,67.267H84.399c-3.413,0-5.973-1.707-7.68-5.12L59.653,28.013c-1.707-2.56-0.853-5.973,0-8.533
		c1.707-1.707,5.12-3.413,7.68-3.413h68.267c2.56,0,5.973,1.707,7.68,4.267s1.707,5.973,0,8.533L126.213,63
		C124.506,65.56,121.946,67.267,118.533,67.267z M89.519,50.2h23.893l8.533-17.067h-40.96L89.519,50.2z"/>
</g>
<g>
</g>
<g>
</g>
<g>
</g>
<g>
</g>
<g>
</g>
<g>
</g>
<g>
</g>
<g>
</g>
<g>
</g>
<g>
</g>
<g>
</g>
<g>
</g>
<g>
</g>
<g>
</g>
<g>
</g>
</svg>
