<?xml version="1.0" encoding="iso-8859-1"?>
<!-- Generator: Adobe Illustrator 19.0.0, SVG Export Plug-In . SVG Version: 6.00 Build 0)  -->
<svg version="1.1" id="Layer_1" xmlns="http://www.w3.org/2000/svg" xmlns:xlink="http://www.w3.org/1999/xlink" x="0px" y="0px"
	 viewBox="0 0 506.896 506.896" style="enable-background:new 0 0 506.896 506.896;" xml:space="preserve">
<g transform="translate(1 1)">
	<g>
		<path style="fill:#FFE100;" d="M292.563,269.515h-0.853c104.107,0.853,188.587,96.427,188.587,213.333h25.6
			C505.896,365.088,410.323,269.515,292.563,269.515"/>
		<path style="fill:#FFE100;" d="M138.963,196.981c0-5.12-3.413-8.533-8.533-8.533c-5.12,0-8.533,3.413-8.533,8.533
			c0,5.12,3.413,8.533,8.533,8.533C135.549,205.515,138.963,202.101,138.963,196.981"/>
		<path style="fill:#FFE100;" d="M139.816,327.541c-0.853,0-2.56,0-3.413-0.853c-3.413-1.707-5.12-4.267-5.12-7.68v-64.853
			c0-8.533-0.853-17.92-1.707-26.453c-0.853-4.267,2.56-9.387,6.827-9.387c4.267-0.853,9.387,2.56,9.387,6.827
			c1.707,9.387,2.56,19.627,2.56,29.013v46.933c37.547-26.453,81.92-40.96,128-40.96s90.453,14.507,128,40.96v-46.933
			c0-30.72,7.68-61.44,22.187-87.893l5.12-9.387c10.24-19.627,11.093-42.667,0.853-63.147s-29.013-33.28-51.2-36.693h-1.707
			c-2.56,13.653-13.653,24.747-27.307,24.747H199.549c-13.653,0-25.6-11.093-26.453-23.893h-1.707
			c-22.187,3.413-40.96,16.213-51.2,36.693s-10.24,42.667,0.853,63.147l5.12,9.387c2.56,4.267,0.853,9.387-3.413,11.947
			c-4.267,2.56-9.387,0.853-11.947-3.413l-5.12-9.387c-12.8-24.747-13.653-53.76-0.853-78.507s35.84-41.813,64-46.08l11.947-2.56
			c2.56,0,5.12,0,6.827,1.707c1.707,1.707,2.56,4.267,2.56,6.827v7.68c0,5.12,4.267,9.387,9.387,9.387h152.747
			c5.12,0,9.387-4.267,9.387-9.387v-7.68c0-2.56,0.853-5.12,2.56-6.827c1.707-0.853,4.267-1.707,6.827-1.707l11.093,1.707
			c28.16,4.267,51.2,20.48,64,46.08c12.8,24.747,12.8,53.76-0.853,78.507l-5.12,9.387c-12.8,24.747-19.627,52.053-19.627,80.213
			v64.853c0,3.413-1.707,5.973-5.12,7.68c-2.56,1.707-6.827,0.853-9.387-0.853c-35.84-31.573-81.92-48.64-129.707-48.64
			s-94.72,17.067-131.413,47.787C143.229,326.688,141.523,327.541,139.816,327.541z"/>
		<path style="fill:#FFE100;" d="M454.696,482.848c0-117.76-85.333-213.333-190.293-213.333c-64,0-142.507,39.253-176.64,93.867
			l-42.667-55.467c-5.12-6.827,1.707-6.827-4.267-0.853l-3.413,4.267c-5.12,5.973-5.12,14.507-0.853,20.48l0,0
			c19.627,26.453,36.693,58.027,45.227,91.307c0,0-7.68,40.96-7.68,59.733L454.696,482.848L454.696,482.848z"/>
	</g>
	<path style="fill:#FFFFFF;" d="M36.563,331.808L36.563,331.808c-5.12-6.827-4.267-15.36,0.853-21.333l1.707-2.56l-0.853-0.853
		c-5.973-6.827-16.213-6.827-23.04-0.853l-4.267,4.267c-5.973,5.973-5.973,14.507-0.853,20.48l0,0
		c23.893,27.307,42.667,58.88,52.053,92.16c0,0-8.533,40.96-8.533,59.733h20.48c0-18.773,7.68-59.733,7.68-59.733
		C74.109,389.835,56.189,358.261,36.563,331.808"/>
	<path style="fill:#FFA800;" d="M266.963,269.515h-0.853c104.107,0.853,188.587,96.427,188.587,213.333h25.6
		C480.296,365.088,384.723,269.515,266.963,269.515"/>
	<path style="fill:#63D3FD;" d="M342.056,283.168c-23.893-8.533-48.64-13.653-75.093-13.653c-26.453,0-52.053,5.12-75.093,13.653
		c6.827,35.84,37.547,63.147,75.093,63.147S336.083,319.008,342.056,283.168"/>
	<g>
		<path style="fill:#FFE100;" d="M275.496,278.048c-5.12,0-8.533-3.413-8.533-8.533v-42.667c0-5.12,3.413-8.533,8.533-8.533
			c5.12,0,8.533,3.413,8.533,8.533v42.667C284.029,274.635,280.616,278.048,275.496,278.048z"/>
		<path style="fill:#FFE100;" d="M309.629,235.381h-68.267c-5.12,0-8.533-3.413-8.533-8.533c0-5.12,3.413-8.533,8.533-8.533h68.267
			c5.12,0,8.533,3.413,8.533,8.533C318.163,231.968,314.749,235.381,309.629,235.381z"/>
		<path style="fill:#FFE100;" d="M317.309,73.248H216.616c-10.24,0-17.92-7.68-17.92-17.92v-15.36c0-10.24,7.68-17.92,17.92-17.92
			h100.693c10.24,0,17.92,7.68,17.92,17.92v15.36C335.229,65.568,327.549,73.248,317.309,73.248"/>
	</g>
	<path style="fill:#FFFFFF;" d="M198.696,55.328v-15.36c0-10.24,7.68-17.92,17.92-17.92h-25.6c-10.24,0-17.92,7.68-17.92,17.92
		v15.36c0,10.24,7.68,17.92,17.92,17.92h25.6C206.376,73.248,198.696,65.568,198.696,55.328"/>
	<path style="fill:#FFA800;" d="M342.909,22.048h-25.6c10.24,0,17.92,7.68,17.92,17.92v15.36c0,10.24-7.68,17.92-17.92,17.92h25.6
		c10.24,0,17.92-7.68,17.92-17.92v-15.36C360.829,29.728,353.149,22.048,342.909,22.048"/>
	<path d="M480.296,491.381H53.629c-5.12,0-8.533-3.413-8.533-8.533c0-17.067,6.827-50.347,8.533-59.733
		c-10.24-34.987-31.573-65.707-48.64-85.333c-8.533-10.24-7.68-23.893,0.853-32.427l4.267-4.267
		c4.267-4.267,11.093-7.68,17.92-6.827c6.827,0,12.8,3.413,17.067,8.533l41.813,47.787c42.667-54.613,112.64-89.6,180.053-89.6
		c122.027,0,221.867,99.84,221.867,221.867C488.829,487.968,485.416,491.381,480.296,491.381z M63.016,474.315h408.747
		c-4.267-109.227-94.72-196.267-204.8-196.267c-65.707,0-133.12,35.84-172.373,90.453c-1.707,2.56-4.267,3.413-6.827,3.413
		c-2.56,0-5.12-0.853-6.827-2.56l-48.64-55.467c-1.707-1.707-3.413-2.56-5.12-2.56c-1.707,0-3.413,0.853-5.12,1.707l-4.267,4.267
		c-2.56,2.56-2.56,6.827,0,9.387c18.773,21.333,41.813,54.613,52.907,93.867c0,1.707,0,2.56,0,4.267
		C70.696,424.821,64.723,454.688,63.016,474.315z"/>
	<path d="M497.363,491.381h-460.8c-5.12,0-8.533-3.413-8.533-8.533c0-5.12,3.413-8.533,8.533-8.533h460.8
		c5.12,0,8.533,3.413,8.533,8.533C505.896,487.968,502.483,491.381,497.363,491.381z"/>
	<path d="M266.963,354.848c-40.96,0-76.8-29.867-83.627-69.973l-1.707-6.827l6.827-2.56c50.347-18.773,106.667-18.773,157.013,0
		l6.827,2.56l-0.853,6.827C343.763,324.981,307.923,354.848,266.963,354.848z M201.256,289.141
		c8.533,29.013,34.987,48.64,65.707,48.64s57.173-20.48,65.707-48.64C290.003,274.635,243.923,274.635,201.256,289.141z"/>
	<path d="M266.963,278.048c-5.12,0-8.533-3.413-8.533-8.533v-42.667c0-5.12,3.413-8.533,8.533-8.533c5.12,0,8.533,3.413,8.533,8.533
		v42.667C275.496,274.635,272.083,278.048,266.963,278.048z"/>
	<path d="M301.096,235.381h-68.267c-5.12,0-8.533-3.413-8.533-8.533c0-5.12,3.413-8.533,8.533-8.533h68.267
		c5.12,0,8.533,3.413,8.533,8.533C309.629,231.968,306.216,235.381,301.096,235.381z"/>
	<path d="M342.909,81.781H191.016c-14.507,0-26.453-11.947-26.453-26.453v-15.36c0-14.507,11.947-26.453,26.453-26.453h151.893
		c14.507,0,26.453,11.947,26.453,26.453v15.36C369.363,69.835,357.416,81.781,342.909,81.781z M191.016,30.581
		c-5.12,0-9.387,4.267-9.387,9.387v15.36c0,5.12,4.267,9.387,9.387,9.387h151.893c5.12,0,9.387-4.267,9.387-9.387v-15.36
		c0-5.12-4.267-9.387-9.387-9.387H191.016z"/>
	<path d="M403.496,327.541c-1.707,0-4.267-0.853-5.12-1.707c-36.693-30.72-83.627-47.787-131.413-47.787
		s-94.72,17.067-131.413,47.787c-2.56,1.707-5.973,2.56-9.387,0.853c-3.413-1.707-5.12-4.267-5.12-7.68v-64.853
		c0-8.533-0.853-17.92-1.707-26.453c-0.853-4.267,2.56-9.387,6.827-9.387c4.267-0.853,9.387,2.56,9.387,6.827
		c1.707,9.387,2.56,19.627,2.56,29.013v46.933c37.547-26.453,81.92-40.96,128-40.96s90.453,14.507,128,40.96v-46.933
		c0-30.72,7.68-61.44,22.187-87.893l5.12-9.387c10.24-19.627,11.093-42.667,0.853-63.147c-10.24-20.48-29.013-33.28-51.2-36.693
		h-1.707c-0.853,13.653-12.8,24.747-26.453,24.747H191.016c-13.653,0-25.6-11.093-26.453-23.893h-1.707
		c-22.187,3.413-40.96,16.213-51.2,36.693s-10.24,42.667,0.853,63.147l5.12,9.387c2.56,4.267,0.853,9.387-3.413,11.947
		c-4.267,2.56-9.387,0.853-11.947-3.413l-5.12-9.387c-12.8-24.747-13.653-53.76-0.853-78.507s35.84-41.813,64-46.08l11.947-2.56
		c2.56,0,5.12,0,6.827,1.707c1.707,1.707,2.56,4.267,2.56,6.827v7.68c0,5.12,4.267,9.387,9.387,9.387h151.893
		c5.12,0,9.387-4.267,9.387-9.387v-7.68c0-2.56,0.853-5.12,2.56-6.827c2.56-0.853,5.12-1.707,6.827-1.707l11.093,1.707
		c28.16,4.267,51.2,20.48,64,46.08c12.8,24.747,12.8,53.76-0.853,78.507l-5.12,9.387c-11.947,23.893-18.773,52.053-18.773,79.36
		v64.853c0,3.413-1.707,5.973-5.12,7.68C406.056,327.541,404.349,327.541,403.496,327.541z"/>
	<path d="M128.723,196.981c0-5.12-3.413-8.533-8.533-8.533s-8.533,3.413-8.533,8.533c0,5.12,3.413,8.533,8.533,8.533
		S128.723,202.101,128.723,196.981"/>
</g>
<g>
</g>
<g>
</g>
<g>
</g>
<g>
</g>
<g>
</g>
<g>
</g>
<g>
</g>
<g>
</g>
<g>
</g>
<g>
</g>
<g>
</g>
<g>
</g>
<g>
</g>
<g>
</g>
<g>
</g>
</svg>
