<?xml version="1.0" encoding="iso-8859-1"?>
<!-- Generator: Adobe Illustrator 19.0.0, SVG Export Plug-In . SVG Version: 6.00 Build 0)  -->
<svg version="1.1" id="Layer_1" xmlns="http://www.w3.org/2000/svg" xmlns:xlink="http://www.w3.org/1999/xlink" x="0px" y="0px"
	 viewBox="0 0 506.433 506.433" style="enable-background:new 0 0 506.433 506.433;" xml:space="preserve">
<g>
	<path style="fill:#E6E6E6;" d="M298.162,209.827h-69.424c-4.79,0-8.678,3.888-8.678,8.678s3.888,8.678,8.678,8.678h26.034v34.712
		c0,4.79,3.888,8.678,8.678,8.678c4.79,0,8.678-3.888,8.678-8.678v-34.712h26.034c4.79,0,8.678-3.888,8.678-8.678
		S302.952,209.827,298.162,209.827"/>
	<path style="fill:#D2D5D7;" d="M263.45,270.572c46.679,0,92.255,14.579,130.169,41.359v-48.015c0-31.119,7.697-62.1,22.259-89.609
		l4.825-9.121c10.735-20.272,10.917-43.624,0.512-64.069c-10.414-20.445-29.41-34.026-52.12-37.272l-1.579-0.226
		c-1.024,13.798-12.583,24.715-26.633,24.715H186.016c-14.05,0-25.609-10.917-26.633-24.715l-1.579,0.226
		c-22.71,3.246-41.706,16.827-52.12,37.272c-10.405,20.445-10.223,43.798,0.512,64.069l4.825,9.121
		c14.562,27.509,22.259,58.49,22.259,89.609v48.015C171.195,285.151,216.771,270.572,263.45,270.572L263.45,270.572z
		 M410.975,348.058l-14.241-11.863c-37.315-31.128-84.654-48.267-133.285-48.267s-95.97,17.139-133.285,48.267l-14.241,11.863
		v-84.142c0-28.299-7.003-56.476-20.246-81.486l-4.825-9.121c-13.407-25.331-13.642-54.515-0.633-80.063
		s36.751-42.531,65.128-46.583l21.322-3.046v18.015c0,5.155,4.191,9.346,9.346,9.346h154.867c5.155,0,9.346-4.191,9.346-9.346
		V43.618l21.322,3.046c28.377,4.053,52.12,21.035,65.128,46.583c13.008,25.548,12.774,54.732-0.634,80.063l-4.825,9.121
		c-13.243,25.01-20.246,53.187-20.246,81.486V348.058z"/>
	<path style="fill:#E6E6E6;" d="M480.399,478.844c0-119.817-97.132-216.949-216.949-216.949
		c-73.207,0-142.943,39.919-182.237,95.458l-49.647-56.737c-6.005-6.864-16.566-7.22-23.023-0.764l-3.922,3.922
		c-5.771,5.771-6.187,14.987-0.963,21.252l0.304,0.373c22.311,26.772,42.045,59.071,51.217,92.698c0,0-8.678,41.715-8.678,60.746
		H480.399z"/>
	<g>
		<path style="fill:#D2D5D7;" d="M497.755,487.522H29.145c-4.79,0-8.678-3.888-8.678-8.678c0-4.79,3.888-8.678,8.678-8.678h468.61
			c4.79,0,8.678,3.888,8.678,8.678C506.433,483.634,502.545,487.522,497.755,487.522"/>
		<path style="fill:#D2D5D7;" d="M340.227,275.919c-23.873-9.042-49.733-14.024-76.774-14.024c-27.041,0-52.91,4.981-76.783,14.024
			c6.621,36.43,38.443,64.078,76.783,64.078S333.614,312.349,340.227,275.919"/>
	</g>
	<path style="fill:#E0A070;" d="M340.883,18.911H186.016c-14.718,0-26.702,11.976-26.702,26.702v16.02
		c0,14.727,11.984,26.702,26.702,26.702h154.867c14.727,0,26.702-11.976,26.702-26.702v-16.02
		C367.585,30.887,355.609,18.911,340.883,18.911"/>
</g>
<g>
</g>
<g>
</g>
<g>
</g>
<g>
</g>
<g>
</g>
<g>
</g>
<g>
</g>
<g>
</g>
<g>
</g>
<g>
</g>
<g>
</g>
<g>
</g>
<g>
</g>
<g>
</g>
<g>
</g>
</svg>
