<?xml version="1.0" encoding="iso-8859-1"?>
<!-- Generator: Adobe Illustrator 19.0.0, SVG Export Plug-In . SVG Version: 6.00 Build 0)  -->
<svg version="1.1" id="Layer_1" xmlns="http://www.w3.org/2000/svg" xmlns:xlink="http://www.w3.org/1999/xlink" x="0px" y="0px"
	 viewBox="0 0 506.896 506.896" style="enable-background:new 0 0 506.896 506.896;" xml:space="preserve">
<g transform="translate(1 1)">
	<g>
		<path d="M497.363,474.315h-8.715c-2.425-63.272-31.659-119.977-76.619-158.991v-61.169c0-27.307,6.827-55.467,19.627-79.36
			l5.12-9.387c13.653-24.747,13.653-53.76,0.853-78.507c-12.8-25.6-35.84-41.813-64-46.08l-4.267-0.683v-0.171
			c0-14.507-11.947-26.453-26.453-26.453H191.016c-14.334,0-26.161,11.667-26.44,25.94l-4.28,0.514
			c-28.16,4.267-51.2,21.333-64,46.08c-12.8,24.747-11.947,53.76,0.853,78.507l5.12,9.387c12.8,24.747,19.627,52.053,19.627,80.213
			v60.767c-12.952,10.623-24.76,22.57-34.987,35.66l-41.813-47.787c-4.267-5.12-10.24-8.533-17.067-8.533
			c-6.827-0.853-13.653,2.56-17.92,6.827l-4.267,4.267c-8.533,8.533-9.387,22.187-0.853,32.427
			c17.067,19.627,38.4,50.347,48.64,85.333c-1.454,7.995-6.619,33.32-8.119,51.2h-8.947c-5.12,0-8.533,3.413-8.533,8.533
			s3.413,8.533,8.533,8.533h17.067h426.667h17.067c5.12,0,8.533-3.413,8.533-8.533S502.483,474.315,497.363,474.315z
			 M235.831,280.666c0.568-0.088,1.135-0.18,1.704-0.263c0.178-0.028,0.357-0.052,0.535-0.079c31.609-4.53,63.984-1.591,94.6,8.818
			c-8.533,28.16-34.987,48.64-65.707,48.64c-30.583,0-56.931-19.455-65.585-48.256C212.657,285.594,224.194,282.601,235.831,280.666
			z M191.016,30.581h151.893c5.12,0,9.387,4.267,9.387,9.387v15.36c0,5.12-4.267,9.387-9.387,9.387H191.016
			c-5.12,0-9.387-4.267-9.387-9.387v-15.36C181.629,34.848,185.896,30.581,191.016,30.581z M117.629,167.115l-5.12-9.387
			c-11.093-20.48-11.093-42.667-0.853-63.147c10.24-20.48,29.013-33.28,51.2-36.693h1.707c0.457,6.858,4.101,13.223,9.483,17.658
			c4.299,3.622,9.748,5.912,15.685,6.202c0.426,0.022,0.855,0.033,1.285,0.033h151.893c0.43,0,0.859-0.011,1.285-0.033
			c4.698-0.23,9.088-1.715,12.847-4.118c0.09-0.056,0.178-0.115,0.268-0.172c0.141-0.092,0.284-0.183,0.423-0.278
			c6.654-4.415,11.45-11.538,12.484-19.293h1.707c22.187,3.413,40.96,16.213,51.2,36.693c10.24,20.48,9.387,43.52-0.853,63.147
			l-5.12,9.387c-14.507,26.453-22.187,57.173-22.187,87.893v46.898c-13.236-9.407-27.539-17.397-42.679-23.758l0.013-0.101
			l-2.996-1.123c-21.204-8.545-44.004-13.892-67.796-15.451c-0.725-0.048-1.449-0.098-2.175-0.139
			c-0.781-0.043-1.563-0.08-2.346-0.115c-0.496-0.023-0.99-0.052-1.486-0.071v-25.767h25.6c5.12,0,8.533-3.413,8.533-8.533
			c0-5.12-3.413-8.533-8.533-8.533h-68.267c-5.12,0-8.533,3.413-8.533,8.533c0,5.12,3.413,8.533,8.533,8.533h25.6v25.767
			c-21.688,0.845-42.909,4.903-63.035,11.899c-2.323,0.779-4.639,1.584-6.938,2.441l-6.827,2.56l0.072,0.29
			c-10.982,4.671-21.575,10.241-31.665,16.673c-3.46,2.095-6.869,4.277-10.221,6.542v-46.545
			C139.816,224.288,132.136,194.421,117.629,167.115z M63.016,474.315c1.707-19.627,7.68-49.493,7.68-49.493c0-1.707,0-2.56,0-4.267
			c-11.093-39.253-34.133-72.533-52.907-93.867c-2.56-2.56-2.56-6.827,0-9.387l4.267-4.267c1.707-0.853,3.413-1.707,5.12-1.707
			s3.413,0.853,5.12,2.56l48.64,55.467c1.707,1.707,4.267,2.56,6.827,2.56s5.12-0.853,6.827-3.413
			c10.339-14.384,22.645-27.449,36.345-38.917l4.615-3.75c0.124-0.104,0.252-0.204,0.376-0.308
			c15.305-12.083,32.201-22.197,49.992-29.944c10.835,34.599,43.823,59.266,81.045,59.266c37.409,0,70.533-24.918,81.849-59.791
			c69.979,30.497,119.811,98.865,122.951,179.258H63.016z"/>
	</g>
</g>
<g>
</g>
<g>
</g>
<g>
</g>
<g>
</g>
<g>
</g>
<g>
</g>
<g>
</g>
<g>
</g>
<g>
</g>
<g>
</g>
<g>
</g>
<g>
</g>
<g>
</g>
<g>
</g>
<g>
</g>
</svg>
